<svg width="31" height="31" viewBox="0 0 31 31" fill="none" xmlns="http://www.w3.org/2000/svg">
<path d="M18.8546 22.8779C15.5273 25.0696 15.641 22.5341 14.4182 21.8465C13.2238 21.1589 12.2569 20.2565 11.5175 19.1392C10.8065 17.9932 10.2804 16.7756 9.93917 15.4864C9.59791 14.1685 9.42729 12.9222 9.42729 11.7476C9.42729 10.1719 9.5837 8.71078 9.89652 7.36426C10.2378 6.01774 10.7639 4.84312 11.4748 3.84039C12.2142 2.80901 12.7972 3.4966 14.3755 1.43384C15.9539 -0.62892 17.0914 0.531385 18.8546 0.531385C20.8452 0.531385 24.7413 -1.35948 24.2294 1.9925C23.7175 5.34448 27.0874 4.2558 28.0259 5.94612C28.9644 7.60778 33.2728 8.00887 29.4336 11.7476C25.5944 15.4864 28.9501 15.9018 27.9832 17.5921C27.0448 19.2538 25.7793 20.5573 24.1867 21.5027C22.5942 22.4195 22.1818 20.6862 18.8546 22.8779ZM17.4469 18.9243C18.8688 18.9243 20.1201 18.6235 21.2007 18.0218C22.2814 17.4202 23.1203 16.575 23.7175 15.4864C24.3147 14.3977 24.6133 13.1514 24.6133 11.7476C24.6133 9.59891 23.9877 7.8513 22.7364 6.50478C21.4851 5.12961 19.7219 4.44202 17.4469 4.44202C16.025 4.44202 14.7452 4.74284 13.6077 5.34448C12.4702 5.94612 11.5744 6.79127 10.9203 7.87995C10.2662 8.93997 9.93917 10.2292 9.93917 11.7476C9.93917 13.1228 10.2378 14.3547 10.835 15.4434C11.4322 16.5321 12.2853 17.3915 13.3944 18.0218C14.5035 18.6235 15.8543 18.9243 17.4469 18.9243ZM3.41259 6.93452L9.72589 1.0041L9.93917 6.24693L9.42729 19.8267L11.0909 24.9836V31H0L5.97203 10.3724L6.82518 9.51297L3.41259 6.93452Z" fill="#FD4447"/>
</svg>
