<svg width="71" height="71" viewBox="0 0 71 71" fill="none" xmlns="http://www.w3.org/2000/svg">
<path d="M43.183 52.3978C35.5625 57.4174 35.823 51.6104 33.0223 50.0356C30.2867 48.4608 28.0722 46.3939 26.3788 43.8348C24.7505 41.2102 23.5455 38.4215 22.7639 35.4688C21.9823 32.4504 21.5915 29.5961 21.5915 26.9058C21.5915 23.2969 21.9498 19.9505 22.6662 16.8665C23.4478 13.7826 24.6528 11.0923 26.2811 8.79573C27.9745 6.43354 29.3097 8.00834 32.9246 3.28395C36.5395 -1.44043 39.1448 1.21704 43.183 1.21704C47.7423 1.21704 56.6655 -3.11364 55.4931 4.56347C54.3207 12.2406 62.039 9.74716 64.1883 13.6185C66.3377 17.4243 76.2054 18.3429 67.4124 26.9058C58.6195 35.4688 66.3052 36.4202 64.0907 40.2916C61.9413 44.0973 59.0429 47.0829 55.3954 49.2482C51.748 51.3479 50.8036 47.3781 43.183 52.3978ZM39.959 43.3427C43.2156 43.3427 46.0814 42.6538 48.5565 41.2758C51.0315 39.8979 52.9529 37.9622 54.3207 35.4688C55.6885 32.9753 56.3724 30.121 56.3724 26.9058C56.3724 21.9846 54.9395 17.982 52.0737 14.898C49.2078 11.7485 45.1696 10.1737 39.959 10.1737C36.7023 10.1737 33.7714 10.8626 31.166 12.2406C28.5607 13.6185 26.509 15.5542 25.011 18.0476C23.5129 20.4754 22.7639 23.4282 22.7639 26.9058C22.7639 30.0554 23.4478 32.8769 24.8156 35.3703C26.1834 37.8638 28.1374 39.8322 30.6775 41.2758C33.2177 42.6538 36.3115 43.3427 39.959 43.3427ZM7.81593 15.8823L22.2754 2.29971L22.7639 14.3075L21.5915 45.4096L25.4018 57.2206V71H0L13.6779 23.7563L15.6319 21.7878L7.81593 15.8823Z" fill="#4A1872"/>
</svg>
